<svg width="80" height="18" viewBox="0 0 80 18" fill="none" xmlns="http://www.w3.org/2000/svg">
<path fill-rule="evenodd" clip-rule="evenodd" d="M13.8 0H5.00002L0.400024 4.6V18H5.16002V11.98H13.64V18H18.4V4.6L13.8 0ZM5.16002 5.68H13.64V7.04H5.16002V5.68Z" fill="white"/>
<path d="M38.8 0H20.8V5.68H26.5V12.34H20.8V18H38.8V12.34H33.1V5.68H38.8V0Z" fill="white"/>
<path d="M59.2 0H45.8L41.2 4.6V11H50.2V12.36H41.2V18H54.6L59.2 13.4V7.04H50.2V5.68H59.2V0Z" fill="white"/>
<path d="M79.6 0H66.2L61.6 4.6V18H66.96V12H79.6V6.68H66.96V5.32H79.6V0Z" fill="white"/>
</svg>
