<svg width="39" height="25" viewBox="0 0 39 25" fill="none" xmlns="http://www.w3.org/2000/svg">
<path d="M14.612 24.2266H28.3815C29.3112 24.2266 29.9597 24.0859 30.3268 23.8047C30.694 23.5312 30.8776 23.1367 30.8776 22.6211C30.8776 21.9102 30.6589 21.1641 30.2214 20.3828C29.7917 19.5938 29.1667 18.8594 28.3464 18.1797C27.5261 17.4922 26.5378 16.9336 25.3815 16.5039C24.2331 16.0742 22.9401 15.8594 21.5026 15.8594C20.0651 15.8594 18.7682 16.0742 17.612 16.5039C16.4557 16.9336 15.4675 17.4922 14.6472 18.1797C13.8268 18.8594 13.1979 19.5938 12.7604 20.3828C12.3307 21.1641 12.1159 21.9102 12.1159 22.6211C12.1159 23.1367 12.2995 23.5312 12.6667 23.8047C13.0339 24.0859 13.6823 24.2266 14.612 24.2266ZM21.5026 13.9023C22.3151 13.9023 23.0612 13.6836 23.7409 13.2461C24.4206 12.8086 24.9636 12.2188 25.3698 11.4766C25.7761 10.7266 25.9792 9.88672 25.9792 8.95703C25.9792 8.05078 25.7761 7.23438 25.3698 6.50781C24.9636 5.78125 24.4167 5.20703 23.7292 4.78516C23.0495 4.36328 22.3073 4.15234 21.5026 4.15234C20.6901 4.15234 19.944 4.36719 19.2643 4.79688C18.5847 5.22656 18.0378 5.80859 17.6237 6.54297C17.2175 7.26953 17.0143 8.08203 17.0143 8.98047C17.0143 9.89453 17.2175 10.7266 17.6237 11.4766C18.0378 12.2188 18.5847 12.8086 19.2643 13.2461C19.944 13.6836 20.6901 13.9023 21.5026 13.9023ZM2.57684 24.2266H10.8386C10.5417 23.8047 10.3893 23.2969 10.3815 22.7031C10.3815 22.1094 10.5026 21.4844 10.7448 20.8281C10.987 20.1641 11.3386 19.5156 11.7995 18.8828C12.2604 18.25 12.8073 17.6797 13.4401 17.1719C12.8386 16.7891 12.1393 16.4688 11.3425 16.2109C10.5456 15.9531 9.65497 15.8242 8.67059 15.8242C7.43622 15.8242 6.31512 16.0273 5.30731 16.4336C4.30731 16.8398 3.44794 17.3711 2.72919 18.0273C2.01825 18.6836 1.46747 19.3984 1.07684 20.1719C0.686218 20.9453 0.490906 21.707 0.490906 22.457C0.490906 23.0195 0.647156 23.4531 0.959656 23.7578C1.27997 24.0703 1.81903 24.2266 2.57684 24.2266ZM8.67059 14.1484C9.37372 14.1484 10.0222 13.957 10.6159 13.5742C11.2097 13.1914 11.6823 12.6758 12.0339 12.0273C12.3932 11.3789 12.5729 10.6523 12.5729 9.84766C12.5729 9.05859 12.3932 8.34766 12.0339 7.71484C11.6823 7.08203 11.2097 6.58203 10.6159 6.21484C10.0222 5.83984 9.37372 5.65234 8.67059 5.65234C7.96747 5.65234 7.31903 5.83984 6.72528 6.21484C6.13153 6.58984 5.65497 7.09766 5.29559 7.73828C4.93622 8.37109 4.75653 9.08203 4.75653 9.87109C4.75653 10.668 4.93622 11.3906 5.29559 12.0391C5.65497 12.6797 6.12762 13.1914 6.71356 13.5742C7.30731 13.957 7.95966 14.1484 8.67059 14.1484ZM29.9167 13.8555C30.1667 14.0117 30.4362 14.0664 30.7253 14.0195C31.0143 13.9648 31.2526 13.8086 31.4401 13.5508C31.8854 12.9414 32.2331 12.2266 32.4831 11.4062C32.7409 10.5859 32.8698 9.73047 32.8698 8.83984C32.8698 7.94922 32.7409 7.09766 32.4831 6.28516C32.2331 5.46484 31.8854 4.74609 31.4401 4.12891C31.2526 3.87891 31.0143 3.72656 30.7253 3.67188C30.4362 3.61719 30.1667 3.67578 29.9167 3.84766C29.6276 4.02734 29.4597 4.27734 29.4128 4.59766C29.3659 4.91797 29.4557 5.25391 29.6823 5.60547C29.9792 6.03516 30.2097 6.53125 30.3737 7.09375C30.5378 7.64844 30.6198 8.23047 30.6198 8.83984C30.6198 9.44141 30.5378 10.0234 30.3737 10.5859C30.2097 11.1484 29.9792 11.6484 29.6823 12.0859C29.4557 12.4375 29.3659 12.7734 29.4128 13.0938C29.4597 13.4062 29.6276 13.6602 29.9167 13.8555ZM34.4753 16.8438C34.7409 17.0078 35.0222 17.0625 35.319 17.0078C35.6159 16.9453 35.8542 16.7773 36.0339 16.5039C36.7604 15.4648 37.3229 14.2812 37.7214 12.9531C38.1276 11.625 38.3307 10.2539 38.3307 8.83984C38.3307 7.42578 38.1315 6.05469 37.7331 4.72656C37.3347 3.39062 36.7682 2.20703 36.0339 1.17578C35.8542 0.910156 35.6159 0.746094 35.319 0.683594C35.0222 0.621094 34.7409 0.671875 34.4753 0.835938C34.194 1.01562 34.0339 1.26563 33.9948 1.58594C33.9557 1.89844 34.0378 2.21094 34.2409 2.52344C34.8268 3.39062 35.28 4.37109 35.6003 5.46484C35.9206 6.55078 36.0807 7.67578 36.0807 8.83984C36.0807 10.0039 35.9167 11.1328 35.5886 12.2266C35.2682 13.3125 34.819 14.2891 34.2409 15.1562C34.0378 15.4688 33.9557 15.7852 33.9948 16.1055C34.0339 16.418 34.194 16.6641 34.4753 16.8438Z" fill="url(#paint0_linear_225_37)"/>
<defs>
<linearGradient id="paint0_linear_225_37" x1="27.5513" y1="11" x2="8.20795" y2="24.9199" gradientUnits="userSpaceOnUse">
<stop stop-color="#00FFFC"/>
<stop offset="0.492293" stop-color="#5C23FF"/>
<stop offset="1" stop-color="#EBC1FF"/>
</linearGradient>
</defs>
</svg>
