<svg width="40" height="45" viewBox="0 0 40 45" fill="none" xmlns="http://www.w3.org/2000/svg">
<path fill-rule="evenodd" clip-rule="evenodd" d="M40 29.2495C40 29.734 39.4624 30.0368 39.0323 29.7946L26.527 22.7518C26.0969 22.5096 26.0969 21.904 26.527 21.6618L39.0323 14.619C39.4624 14.3768 40 14.6796 40 15.1641L40 29.2495ZM39.3548 37.2431C39.7541 37.468 40 37.8835 40 38.3332L40 44.2316C40 44.7161 39.4624 45.0189 39.0323 44.7766L0.32258 22.976C-0.107528 22.7337 -0.107526 22.1281 0.322581 21.8859L5.55928 18.9367C5.95851 18.7119 6.45038 18.7119 6.8496 18.9367L39.3548 37.2431ZM13.6238 14.3949C13.1937 14.6371 13.1937 15.2427 13.6238 15.4849L18.7851 18.3917C18.9847 18.5041 19.2306 18.5041 19.4303 18.3917L39.6774 6.9888C39.877 6.87638 40 6.66862 40 6.44378V0.630272C40 0.145812 39.4624 -0.156977 39.0323 0.085253L13.6238 14.3949Z" fill="white"/>
</svg>
