<svg width="120" height="120" viewBox="0 0 120 120" fill="none" xmlns="http://www.w3.org/2000/svg">
<path fill-rule="evenodd" clip-rule="evenodd" d="M41.875 0H14.375L0 14.375V56.25H14.875V37.4375H41.375V56.25H56.25V14.375L41.875 0ZM14.875 17.75H41.375V22H14.875V17.75Z" fill="url(#paint0_linear_139_2)" fill-opacity="0.5"/>
<path fill-rule="evenodd" clip-rule="evenodd" d="M120 0H63.75V17.75H81.5625V38.5625H63.75V56.25H120V38.5625H102.188V17.75H120V0Z" fill="url(#paint1_linear_139_2)" fill-opacity="0.5"/>
<path fill-rule="evenodd" clip-rule="evenodd" d="M56.25 63.75H14.375L0 78.125V98.125H28.125V102.375H0V120H41.875L56.25 105.625V85.75H28.125V81.5H56.25V63.75Z" fill="url(#paint2_linear_139_2)" fill-opacity="0.5"/>
<path fill-rule="evenodd" clip-rule="evenodd" d="M120 63.75H78.125L63.75 78.125V120H80.5V101.25H120V84.625H80.5V80.375H120V63.75Z" fill="url(#paint3_linear_139_2)" fill-opacity="0.5"/>
<defs>
<linearGradient id="paint0_linear_139_2" x1="120" y1="-5.63359e-06" x2="-8.033" y2="104.613" gradientUnits="userSpaceOnUse">
<stop offset="0.165389" stop-color="#00FFFC"/>
<stop offset="0.492293" stop-color="#5C23FF"/>
<stop offset="1" stop-color="#EBC1FF"/>
</linearGradient>
<linearGradient id="paint1_linear_139_2" x1="120" y1="-5.63359e-06" x2="-8.033" y2="104.613" gradientUnits="userSpaceOnUse">
<stop offset="0.165389" stop-color="#00FFFC"/>
<stop offset="0.492293" stop-color="#5C23FF"/>
<stop offset="1" stop-color="#EBC1FF"/>
</linearGradient>
<linearGradient id="paint2_linear_139_2" x1="120" y1="-5.63359e-06" x2="-8.033" y2="104.613" gradientUnits="userSpaceOnUse">
<stop offset="0.165389" stop-color="#00FFFC"/>
<stop offset="0.492293" stop-color="#5C23FF"/>
<stop offset="1" stop-color="#EBC1FF"/>
</linearGradient>
<linearGradient id="paint3_linear_139_2" x1="120" y1="-5.63359e-06" x2="-8.033" y2="104.613" gradientUnits="userSpaceOnUse">
<stop offset="0.165389" stop-color="#00FFFC"/>
<stop offset="0.492293" stop-color="#5C23FF"/>
<stop offset="1" stop-color="#EBC1FF"/>
</linearGradient>
</defs>
</svg>
