<svg width="375" height="375" viewBox="0 0 375 375" fill="none" xmlns="http://www.w3.org/2000/svg">
<path fill-rule="evenodd" clip-rule="evenodd" d="M130.859 0H44.9219L0 44.9219V175.781H46.4844V116.992H129.297V175.781H175.781V44.9219L130.859 0ZM46.4844 55.4688H129.297V68.75H46.4844V55.4688Z" fill="url(#paint0_linear_91_13)" fill-opacity="0.89"/>
<path fill-rule="evenodd" clip-rule="evenodd" d="M375 0H199.219V55.4688H254.883V120.508H199.219V175.781H375V120.508H319.336V55.4688H375V0Z" fill="url(#paint1_linear_91_13)" fill-opacity="0.89"/>
<path fill-rule="evenodd" clip-rule="evenodd" d="M175.781 199.219H44.9219L0 244.141V306.641H87.8906V319.922H0V375H130.859L175.781 330.078V267.969H87.8906V254.688H175.781V199.219Z" fill="url(#paint2_linear_91_13)" fill-opacity="0.89"/>
<path fill-rule="evenodd" clip-rule="evenodd" d="M375 199.219H244.141L199.219 244.141V375H251.563V316.406H375V264.453H251.563V251.172H375V199.219Z" fill="url(#paint3_linear_91_13)" fill-opacity="0.89"/>
<defs>
<linearGradient id="paint0_linear_91_13" x1="375" y1="-1.7605e-05" x2="-25.1031" y2="326.916" gradientUnits="userSpaceOnUse">
<stop offset="0.165389" stop-color="#00FFFC"/>
<stop offset="0.492293" stop-color="#5C23FF"/>
<stop offset="1" stop-color="#EBC1FF"/>
</linearGradient>
<linearGradient id="paint1_linear_91_13" x1="375" y1="-1.7605e-05" x2="-25.1031" y2="326.916" gradientUnits="userSpaceOnUse">
<stop offset="0.165389" stop-color="#00FFFC"/>
<stop offset="0.492293" stop-color="#5C23FF"/>
<stop offset="1" stop-color="#EBC1FF"/>
</linearGradient>
<linearGradient id="paint2_linear_91_13" x1="375" y1="-1.7605e-05" x2="-25.1031" y2="326.916" gradientUnits="userSpaceOnUse">
<stop offset="0.165389" stop-color="#00FFFC"/>
<stop offset="0.492293" stop-color="#5C23FF"/>
<stop offset="1" stop-color="#EBC1FF"/>
</linearGradient>
<linearGradient id="paint3_linear_91_13" x1="375" y1="-1.7605e-05" x2="-25.1031" y2="326.916" gradientUnits="userSpaceOnUse">
<stop offset="0.165389" stop-color="#00FFFC"/>
<stop offset="0.492293" stop-color="#5C23FF"/>
<stop offset="1" stop-color="#EBC1FF"/>
</linearGradient>
</defs>
</svg>
