<svg width="30" height="20" viewBox="0 0 30 20" fill="none" xmlns="http://www.w3.org/2000/svg">
<path d="M4.52734 19.043H25.5039C26.7148 19.043 27.6328 18.7305 28.2578 18.1055C28.8906 17.4805 29.207 16.5703 29.207 15.375V4.60547C29.207 3.40234 28.8906 2.49219 28.2578 1.875C27.6328 1.25 26.7148 0.9375 25.5039 0.9375H4.52734C3.30859 0.9375 2.38672 1.25 1.76172 1.875C1.13672 2.49219 0.824219 3.40234 0.824219 4.60547V15.375C0.824219 16.5703 1.13672 17.4805 1.76172 18.1055C2.38672 18.7305 3.30859 19.043 4.52734 19.043ZM5.39453 7.40625C5.03516 7.40625 4.85547 7.22266 4.85547 6.85547V5.78906C4.85547 5.42188 5.03516 5.23828 5.39453 5.23828H6.46094C6.83594 5.23828 7.02344 5.42188 7.02344 5.78906V6.85547C7.02344 7.22266 6.83594 7.40625 6.46094 7.40625H5.39453ZM9.02734 7.40625C8.66016 7.40625 8.47656 7.22266 8.47656 6.85547V5.78906C8.47656 5.42188 8.66016 5.23828 9.02734 5.23828H10.082C10.457 5.23828 10.6445 5.42188 10.6445 5.78906V6.85547C10.6445 7.22266 10.457 7.40625 10.082 7.40625H9.02734ZM12.6484 7.40625C12.2812 7.40625 12.0977 7.22266 12.0977 6.85547V5.78906C12.0977 5.42188 12.2812 5.23828 12.6484 5.23828H13.7148C14.082 5.23828 14.2656 5.42188 14.2656 5.78906V6.85547C14.2656 7.22266 14.082 7.40625 13.7148 7.40625H12.6484ZM16.2812 7.40625C15.9141 7.40625 15.7305 7.22266 15.7305 6.85547V5.78906C15.7305 5.42188 15.9141 5.23828 16.2812 5.23828H17.3477C17.7148 5.23828 17.8984 5.42188 17.8984 5.78906V6.85547C17.8984 7.22266 17.7148 7.40625 17.3477 7.40625H16.2812ZM19.9375 7.40625C19.5469 7.40625 19.3516 7.22266 19.3516 6.85547V5.78906C19.3516 5.42188 19.5469 5.23828 19.9375 5.23828H20.9688C21.3359 5.23828 21.5195 5.42188 21.5195 5.78906V6.85547C21.5195 7.22266 21.3359 7.40625 20.9688 7.40625H19.9375ZM23.5352 7.40625C23.1602 7.40625 22.9727 7.22266 22.9727 6.85547V5.78906C22.9727 5.42188 23.1602 5.23828 23.5352 5.23828H24.6016C24.9609 5.23828 25.1406 5.42188 25.1406 5.78906V6.85547C25.1406 7.22266 24.9609 7.40625 24.6016 7.40625H23.5352ZM5.39453 11.0742C5.03516 11.0742 4.85547 10.8906 4.85547 10.5234V9.44531C4.85547 9.07812 5.03516 8.89453 5.39453 8.89453H6.46094C6.83594 8.89453 7.02344 9.07812 7.02344 9.44531V10.5234C7.02344 10.8906 6.83594 11.0742 6.46094 11.0742H5.39453ZM9.02734 11.0742C8.66016 11.0742 8.47656 10.8906 8.47656 10.5234V9.44531C8.47656 9.07812 8.66016 8.89453 9.02734 8.89453H10.082C10.457 8.89453 10.6445 9.07812 10.6445 9.44531V10.5234C10.6445 10.8906 10.457 11.0742 10.082 11.0742H9.02734ZM12.6484 11.0742C12.2812 11.0742 12.0977 10.8906 12.0977 10.5234V9.44531C12.0977 9.07812 12.2812 8.89453 12.6484 8.89453H13.7148C14.082 8.89453 14.2656 9.07812 14.2656 9.44531V10.5234C14.2656 10.8906 14.082 11.0742 13.7148 11.0742H12.6484ZM16.2812 11.0742C15.9141 11.0742 15.7305 10.8906 15.7305 10.5234V9.44531C15.7305 9.07812 15.9141 8.89453 16.2812 8.89453H17.3477C17.7148 8.89453 17.8984 9.07812 17.8984 9.44531V10.5234C17.8984 10.8906 17.7148 11.0742 17.3477 11.0742H16.2812ZM19.9375 11.0742C19.5469 11.0742 19.3516 10.8906 19.3516 10.5234V9.44531C19.3516 9.07812 19.5469 8.89453 19.9375 8.89453H20.9688C21.3359 8.89453 21.5195 9.07812 21.5195 9.44531V10.5234C21.5195 10.8906 21.3359 11.0742 20.9688 11.0742H19.9375ZM23.5352 11.0742C23.1602 11.0742 22.9727 10.8906 22.9727 10.5234V9.44531C22.9727 9.07812 23.1602 8.89453 23.5352 8.89453H24.6016C24.9609 8.89453 25.1406 9.07812 25.1406 9.44531V10.5234C25.1406 10.8906 24.9609 11.0742 24.6016 11.0742H23.5352ZM5.39453 14.7422C5.03516 14.7422 4.85547 14.5547 4.85547 14.1797V13.1133C4.85547 12.7461 5.03516 12.5625 5.39453 12.5625H6.46094C6.83594 12.5625 7.02344 12.7461 7.02344 13.1133V14.1797C7.02344 14.5547 6.83594 14.7422 6.46094 14.7422H5.39453ZM9.10938 14.7422C8.6875 14.7422 8.47656 14.5273 8.47656 14.0977V13.207C8.47656 12.7773 8.6875 12.5625 9.10938 12.5625H20.875C21.3047 12.5625 21.5195 12.7773 21.5195 13.207V14.0977C21.5195 14.5273 21.3047 14.7422 20.875 14.7422H9.10938ZM23.5352 14.7422C23.1602 14.7422 22.9727 14.5547 22.9727 14.1797V13.1133C22.9727 12.7461 23.1602 12.5625 23.5352 12.5625H24.6016C24.9609 12.5625 25.1406 12.7461 25.1406 13.1133V14.1797C25.1406 14.5547 24.9609 14.7422 24.6016 14.7422H23.5352Z" fill="url(#paint0_linear_62_22)"/>
<defs>
<linearGradient id="paint0_linear_62_22" x1="26.2692" y1="7" x2="7.29037" y2="19.9193" gradientUnits="userSpaceOnUse">
<stop stop-color="#00FFFC"/>
<stop offset="0.492293" stop-color="#5C23FF"/>
<stop offset="1" stop-color="#EBC1FF"/>
</linearGradient>
</defs>
</svg>
