<svg width="80" height="18" viewBox="0 0 80 18" fill="none" xmlns="http://www.w3.org/2000/svg">
<path fill-rule="evenodd" clip-rule="evenodd" d="M13.4 0H4.6L0 4.6V18H4.76V11.98H13.24V18H18V4.6L13.4 0ZM4.76 5.68H13.24V7.04H4.76V5.68Z" fill="white"/>
<path d="M38.4 0H20.4V5.68H26.1V12.34H20.4V18H38.4V12.34H32.7V5.68H38.4V0Z" fill="white"/>
<path d="M58.8 0H45.4L40.8 4.6V11H49.8V12.36H40.8V18H54.2L58.8 13.4V7.04H49.8V5.68H58.8V0Z" fill="white"/>
<path d="M79.2 0H65.8L61.2 4.6V18H66.56V12H79.2V6.68H66.56V5.32H79.2V0Z" fill="white"/>
</svg>
