<svg width="25" height="22" viewBox="0 0 25 22" fill="none" xmlns="http://www.w3.org/2000/svg">
<path d="M3.79428 21.6953H20.9154C21.5638 21.6953 22.1263 21.5508 22.6029 21.2617C23.0872 20.9805 23.4583 20.5977 23.7162 20.1133C23.9818 19.6289 24.1146 19.0938 24.1146 18.5078C24.1146 18.2344 24.0755 17.9609 23.9974 17.6875C23.9271 17.4141 23.8177 17.1445 23.6693 16.8789L15.1029 1.9375C14.7904 1.40625 14.388 1.00781 13.8958 0.742188C13.4037 0.46875 12.888 0.332031 12.349 0.332031C11.8099 0.332031 11.2943 0.46875 10.8021 0.742188C10.3099 1.00781 9.91147 1.40625 9.60678 1.9375L1.04037 16.8906C0.7435 17.3984 0.595062 17.9375 0.595062 18.5078C0.595062 19.0938 0.723969 19.6289 0.981781 20.1133C1.24741 20.5977 1.6185 20.9805 2.09506 21.2617C2.57944 21.5508 3.14584 21.6953 3.79428 21.6953ZM12.3724 17.2891C11.4115 17.2891 10.638 17.0078 10.0521 16.4453C9.47397 15.875 9.18491 15.125 9.18491 14.1953C9.18491 13.7578 9.25912 13.3359 9.40756 12.9297C9.556 12.5234 9.71225 12.1523 9.87631 11.8164C10.1185 11.2852 10.4154 10.7227 10.7669 10.1289C11.1263 9.53516 11.474 8.97656 11.8099 8.45312C11.974 8.21094 12.1615 8.08984 12.3724 8.08984C12.5755 8.08984 12.7591 8.21094 12.9232 8.45312C13.2513 8.97656 13.5951 9.53516 13.9544 10.1289C14.3138 10.7227 14.6185 11.2852 14.8685 11.8164C15.0247 12.1445 15.1771 12.5156 15.3255 12.9297C15.474 13.3359 15.5482 13.7578 15.5482 14.1953C15.5482 15.125 15.2552 15.875 14.6693 16.4453C14.0912 17.0078 13.3255 17.2891 12.3724 17.2891Z" fill="url(#paint0_linear_62_28)"/>
<defs>
<linearGradient id="paint0_linear_62_28" x1="19.4974" y1="10" x2="2.52424" y2="23.3095" gradientUnits="userSpaceOnUse">
<stop stop-color="#00FFFC"/>
<stop offset="0.492293" stop-color="#5C23FF"/>
<stop offset="1" stop-color="#EBC1FF"/>
</linearGradient>
</defs>
</svg>
